<mxfile host="app.diagrams.net" agent="Mozilla/5.0 (Macintosh; Intel Mac OS X 10_15_7) AppleWebKit/537.36 (KHTML, like Gecko) Chrome/127.0.0.0 Safari/537.36" version="24.8.0">
  <diagram name="第 1 页" id="rhqk0mAVOFnoOc7n8g6Q">
    <mxGraphModel dx="1971" dy="1671" grid="1" gridSize="10" guides="1" tooltips="1" connect="1" arrows="1" fold="1" page="1" pageScale="1" pageWidth="827" pageHeight="1169" math="0" shadow="0">
      <root>
        <mxCell id="0" />
        <mxCell id="1" parent="0" />
        <mxCell id="8fC7M1Cp9CSbAhAaaUhM-53" value="用户" style="whiteSpace=wrap;strokeWidth=2;fontSize=18;" vertex="1" parent="1">
          <mxGeometry x="118" y="470" width="150" height="49" as="geometry" />
        </mxCell>
        <mxCell id="8fC7M1Cp9CSbAhAaaUhM-54" value="阅读新闻" style="rounded=1;arcSize=40;strokeWidth=2;fontSize=18;strokeColor=default;perimeterSpacing=0;shape=ellipse;perimeter=ellipsePerimeter;whiteSpace=wrap;html=1;" vertex="1" parent="1">
          <mxGeometry x="363" y="369" width="120" height="80" as="geometry" />
        </mxCell>
        <mxCell id="8fC7M1Cp9CSbAhAaaUhM-106" style="rounded=0;orthogonalLoop=1;jettySize=auto;html=1;entryDx=0;entryDy=0;dashed=1;fontSize=18;" edge="1" parent="1" source="8fC7M1Cp9CSbAhAaaUhM-55" target="8fC7M1Cp9CSbAhAaaUhM-104">
          <mxGeometry relative="1" as="geometry" />
        </mxCell>
        <mxCell id="8fC7M1Cp9CSbAhAaaUhM-108" value="&amp;lt;&amp;lt;includ&amp;gt;&amp;gt;" style="edgeLabel;html=1;align=center;verticalAlign=middle;resizable=0;points=[];fontSize=18;" vertex="1" connectable="0" parent="8fC7M1Cp9CSbAhAaaUhM-106">
          <mxGeometry x="0.0003" y="1" relative="1" as="geometry">
            <mxPoint x="1" as="offset" />
          </mxGeometry>
        </mxCell>
        <mxCell id="8fC7M1Cp9CSbAhAaaUhM-55" value="登录系统" style="rounded=1;arcSize=40;strokeWidth=2;fontSize=18;shape=ellipse;perimeter=ellipsePerimeter;whiteSpace=wrap;html=1;" vertex="1" parent="1">
          <mxGeometry x="363" y="500" width="120" height="80" as="geometry" />
        </mxCell>
        <mxCell id="8fC7M1Cp9CSbAhAaaUhM-56" value="产品经理" style="whiteSpace=wrap;strokeWidth=2;fontSize=18;" vertex="1" parent="1">
          <mxGeometry x="118" y="660" width="150" height="49" as="geometry" />
        </mxCell>
        <mxCell id="8fC7M1Cp9CSbAhAaaUhM-57" value="收集新闻媒体网站" style="rounded=1;arcSize=40;strokeWidth=2;fontSize=18;shape=ellipse;perimeter=ellipsePerimeter;whiteSpace=wrap;html=1;" vertex="1" parent="1">
          <mxGeometry x="363" y="660" width="120" height="80" as="geometry" />
        </mxCell>
        <mxCell id="8fC7M1Cp9CSbAhAaaUhM-58" value="爬虫工程师" style="whiteSpace=wrap;strokeWidth=2;fontSize=18;" vertex="1" parent="1">
          <mxGeometry x="118" y="910" width="150" height="49" as="geometry" />
        </mxCell>
        <mxCell id="8fC7M1Cp9CSbAhAaaUhM-140" style="rounded=0;orthogonalLoop=1;jettySize=auto;html=1;entryDx=0;entryDy=0;dashed=1;strokeWidth=2;fontSize=18;" edge="1" parent="1" source="8fC7M1Cp9CSbAhAaaUhM-59" target="8fC7M1Cp9CSbAhAaaUhM-139">
          <mxGeometry relative="1" as="geometry" />
        </mxCell>
        <mxCell id="8fC7M1Cp9CSbAhAaaUhM-141" value="&amp;lt;&amp;lt;extend&amp;gt;&amp;gt;" style="edgeLabel;html=1;align=center;verticalAlign=middle;resizable=0;points=[];fontSize=18;" vertex="1" connectable="0" parent="8fC7M1Cp9CSbAhAaaUhM-140">
          <mxGeometry x="-0.1418" y="1" relative="1" as="geometry">
            <mxPoint x="-1" as="offset" />
          </mxGeometry>
        </mxCell>
        <mxCell id="8fC7M1Cp9CSbAhAaaUhM-59" value="抓取新闻数据" style="rounded=1;arcSize=40;strokeWidth=2;fontSize=18;shape=ellipse;perimeter=ellipsePerimeter;whiteSpace=wrap;html=1;" vertex="1" parent="1">
          <mxGeometry x="363" y="830" width="120" height="80" as="geometry" />
        </mxCell>
        <mxCell id="8fC7M1Cp9CSbAhAaaUhM-127" style="rounded=0;orthogonalLoop=1;jettySize=auto;html=1;entryDx=0;entryDy=0;strokeWidth=2;dashed=1;fontSize=18;" edge="1" parent="1" source="8fC7M1Cp9CSbAhAaaUhM-60" target="8fC7M1Cp9CSbAhAaaUhM-126">
          <mxGeometry relative="1" as="geometry" />
        </mxCell>
        <mxCell id="8fC7M1Cp9CSbAhAaaUhM-128" value="&amp;lt;&amp;lt;includ&amp;gt;&amp;gt;" style="edgeLabel;html=1;align=center;verticalAlign=middle;resizable=0;points=[];fontSize=18;" vertex="1" connectable="0" parent="8fC7M1Cp9CSbAhAaaUhM-127">
          <mxGeometry x="-0.1027" y="-7" relative="1" as="geometry">
            <mxPoint x="-1" as="offset" />
          </mxGeometry>
        </mxCell>
        <mxCell id="8fC7M1Cp9CSbAhAaaUhM-60" value="数据清洗" style="rounded=1;arcSize=40;strokeWidth=2;fontSize=18;shape=ellipse;perimeter=ellipsePerimeter;whiteSpace=wrap;html=1;" vertex="1" parent="1">
          <mxGeometry x="363" y="959" width="120" height="80" as="geometry" />
        </mxCell>
        <mxCell id="8fC7M1Cp9CSbAhAaaUhM-138" style="rounded=0;orthogonalLoop=1;jettySize=auto;html=1;entryDx=0;entryDy=0;strokeWidth=2;fontSize=18;" edge="1" parent="1" source="8fC7M1Cp9CSbAhAaaUhM-61" target="8fC7M1Cp9CSbAhAaaUhM-137">
          <mxGeometry relative="1" as="geometry" />
        </mxCell>
        <mxCell id="8fC7M1Cp9CSbAhAaaUhM-157" style="rounded=0;orthogonalLoop=1;jettySize=auto;html=1;entryDx=0;entryDy=0;strokeWidth=2;fontSize=18;" edge="1" parent="1" source="8fC7M1Cp9CSbAhAaaUhM-61" target="8fC7M1Cp9CSbAhAaaUhM-146">
          <mxGeometry relative="1" as="geometry" />
        </mxCell>
        <mxCell id="8fC7M1Cp9CSbAhAaaUhM-61" value="后端开发工程师" style="whiteSpace=wrap;strokeWidth=2;fontSize=18;" vertex="1" parent="1">
          <mxGeometry x="1610" y="980" width="150" height="49" as="geometry" />
        </mxCell>
        <mxCell id="8fC7M1Cp9CSbAhAaaUhM-62" value="读取原新闻内容" style="rounded=1;arcSize=40;strokeWidth=2;fontSize=18;shape=ellipse;perimeter=ellipsePerimeter;whiteSpace=wrap;html=1;" vertex="1" parent="1">
          <mxGeometry x="1030" y="940" width="120" height="80" as="geometry" />
        </mxCell>
        <mxCell id="8fC7M1Cp9CSbAhAaaUhM-132" style="rounded=0;orthogonalLoop=1;jettySize=auto;html=1;entryDx=0;entryDy=0;dashed=1;strokeWidth=2;fontSize=18;" edge="1" parent="1" source="8fC7M1Cp9CSbAhAaaUhM-63" target="8fC7M1Cp9CSbAhAaaUhM-64">
          <mxGeometry relative="1" as="geometry" />
        </mxCell>
        <mxCell id="8fC7M1Cp9CSbAhAaaUhM-171" value="&amp;lt;&amp;lt;&amp;lt;includ&amp;gt;&amp;gt;" style="edgeLabel;html=1;align=center;verticalAlign=middle;resizable=0;points=[];fontSize=18;" vertex="1" connectable="0" parent="8fC7M1Cp9CSbAhAaaUhM-132">
          <mxGeometry x="0.1056" y="-6" relative="1" as="geometry">
            <mxPoint as="offset" />
          </mxGeometry>
        </mxCell>
        <mxCell id="8fC7M1Cp9CSbAhAaaUhM-133" style="rounded=0;orthogonalLoop=1;jettySize=auto;html=1;entryDx=0;entryDy=0;dashed=1;strokeWidth=2;fontSize=18;" edge="1" parent="1" source="8fC7M1Cp9CSbAhAaaUhM-63" target="8fC7M1Cp9CSbAhAaaUhM-62">
          <mxGeometry relative="1" as="geometry" />
        </mxCell>
        <mxCell id="8fC7M1Cp9CSbAhAaaUhM-172" value="&amp;lt;&amp;lt;includ&amp;gt;&amp;gt;" style="edgeLabel;html=1;align=center;verticalAlign=middle;resizable=0;points=[];fontSize=18;" vertex="1" connectable="0" parent="8fC7M1Cp9CSbAhAaaUhM-133">
          <mxGeometry x="0.1678" relative="1" as="geometry">
            <mxPoint x="-1" y="-1" as="offset" />
          </mxGeometry>
        </mxCell>
        <mxCell id="8fC7M1Cp9CSbAhAaaUhM-136" style="rounded=0;orthogonalLoop=1;jettySize=auto;html=1;exitDx=0;exitDy=0;entryDx=0;entryDy=0;dashed=1;strokeWidth=2;fontSize=18;" edge="1" parent="1" source="8fC7M1Cp9CSbAhAaaUhM-63" target="8fC7M1Cp9CSbAhAaaUhM-135">
          <mxGeometry relative="1" as="geometry" />
        </mxCell>
        <mxCell id="8fC7M1Cp9CSbAhAaaUhM-170" value="&amp;lt;&amp;lt;includ&amp;gt;&amp;gt;" style="edgeLabel;html=1;align=center;verticalAlign=middle;resizable=0;points=[];fontSize=18;" vertex="1" connectable="0" parent="8fC7M1Cp9CSbAhAaaUhM-136">
          <mxGeometry x="0.0299" y="7" relative="1" as="geometry">
            <mxPoint as="offset" />
          </mxGeometry>
        </mxCell>
        <mxCell id="8fC7M1Cp9CSbAhAaaUhM-63" value="调用大模型输出结果" style="rounded=1;arcSize=40;strokeWidth=2;fontSize=18;shape=ellipse;perimeter=ellipsePerimeter;whiteSpace=wrap;html=1;" vertex="1" parent="1">
          <mxGeometry x="1343" y="1008" width="120" height="80" as="geometry" />
        </mxCell>
        <mxCell id="8fC7M1Cp9CSbAhAaaUhM-64" value="存储精简概括内容" style="rounded=1;arcSize=40;strokeWidth=2;fontSize=18;shape=ellipse;perimeter=ellipsePerimeter;whiteSpace=wrap;html=1;" vertex="1" parent="1">
          <mxGeometry x="1030" y="1050" width="120" height="80" as="geometry" />
        </mxCell>
        <mxCell id="8fC7M1Cp9CSbAhAaaUhM-66" value="算法工程师" style="whiteSpace=wrap;strokeWidth=2;fontSize=18;" vertex="1" parent="1">
          <mxGeometry x="119" y="1164" width="150" height="49" as="geometry" />
        </mxCell>
        <mxCell id="8fC7M1Cp9CSbAhAaaUhM-113" style="rounded=0;orthogonalLoop=1;jettySize=auto;html=1;entryDx=0;entryDy=0;dashed=1;strokeWidth=2;fontSize=18;" edge="1" parent="1" source="8fC7M1Cp9CSbAhAaaUhM-67" target="8fC7M1Cp9CSbAhAaaUhM-111">
          <mxGeometry relative="1" as="geometry" />
        </mxCell>
        <mxCell id="8fC7M1Cp9CSbAhAaaUhM-124" value="&amp;lt;" style="edgeLabel;html=1;align=center;verticalAlign=middle;resizable=0;points=[];fontSize=18;" vertex="1" connectable="0" parent="8fC7M1Cp9CSbAhAaaUhM-113">
          <mxGeometry x="0.0707" y="2" relative="1" as="geometry">
            <mxPoint as="offset" />
          </mxGeometry>
        </mxCell>
        <mxCell id="8fC7M1Cp9CSbAhAaaUhM-125" value="&amp;lt;&amp;lt;includ&amp;gt;&amp;gt;" style="edgeLabel;html=1;align=center;verticalAlign=middle;resizable=0;points=[];fontSize=18;" vertex="1" connectable="0" parent="8fC7M1Cp9CSbAhAaaUhM-113">
          <mxGeometry x="-0.0213" y="-1" relative="1" as="geometry">
            <mxPoint x="1" as="offset" />
          </mxGeometry>
        </mxCell>
        <mxCell id="8fC7M1Cp9CSbAhAaaUhM-67" value="训练大模型" style="rounded=1;arcSize=40;strokeWidth=2;fontSize=18;shape=ellipse;perimeter=ellipsePerimeter;whiteSpace=wrap;html=1;" vertex="1" parent="1">
          <mxGeometry x="363" y="1162" width="120" height="80" as="geometry" />
        </mxCell>
        <mxCell id="8fC7M1Cp9CSbAhAaaUhM-68" value="前端开发工程师" style="whiteSpace=wrap;strokeWidth=2;fontSize=18;" vertex="1" parent="1">
          <mxGeometry x="1590" y="440" width="172" height="49" as="geometry" />
        </mxCell>
        <mxCell id="8fC7M1Cp9CSbAhAaaUhM-153" style="rounded=0;orthogonalLoop=1;jettySize=auto;html=1;entryDx=0;entryDy=0;dashed=1;strokeWidth=2;fontSize=18;" edge="1" parent="1" source="8fC7M1Cp9CSbAhAaaUhM-70" target="8fC7M1Cp9CSbAhAaaUhM-142">
          <mxGeometry relative="1" as="geometry" />
        </mxCell>
        <mxCell id="8fC7M1Cp9CSbAhAaaUhM-163" value="&amp;lt;&amp;lt;includ&amp;gt;&amp;gt;" style="edgeLabel;html=1;align=center;verticalAlign=middle;resizable=0;points=[];fontSize=18;" vertex="1" connectable="0" parent="8fC7M1Cp9CSbAhAaaUhM-153">
          <mxGeometry x="0.2695" y="1" relative="1" as="geometry">
            <mxPoint x="23" y="-1" as="offset" />
          </mxGeometry>
        </mxCell>
        <mxCell id="8fC7M1Cp9CSbAhAaaUhM-160" style="rounded=0;orthogonalLoop=1;jettySize=auto;html=1;dashed=1;strokeWidth=2;fontSize=18;" edge="1" parent="1" source="8fC7M1Cp9CSbAhAaaUhM-70" target="8fC7M1Cp9CSbAhAaaUhM-143">
          <mxGeometry relative="1" as="geometry" />
        </mxCell>
        <mxCell id="8fC7M1Cp9CSbAhAaaUhM-164" value="&amp;lt;&amp;lt;includ&amp;gt;&amp;gt;" style="edgeLabel;html=1;align=center;verticalAlign=middle;resizable=0;points=[];fontSize=18;" vertex="1" connectable="0" parent="8fC7M1Cp9CSbAhAaaUhM-160">
          <mxGeometry x="0.2462" y="1" relative="1" as="geometry">
            <mxPoint x="19" as="offset" />
          </mxGeometry>
        </mxCell>
        <mxCell id="8fC7M1Cp9CSbAhAaaUhM-70" value="开发新闻阅读页面" style="rounded=1;arcSize=40;strokeWidth=2;fontSize=18;shape=ellipse;perimeter=ellipsePerimeter;whiteSpace=wrap;html=1;" vertex="1" parent="1">
          <mxGeometry x="1360" y="424.5" width="120" height="80" as="geometry" />
        </mxCell>
        <mxCell id="8fC7M1Cp9CSbAhAaaUhM-71" value="收集用户反馈" style="rounded=1;arcSize=40;strokeWidth=2;fontSize=18;shape=ellipse;perimeter=ellipsePerimeter;whiteSpace=wrap;html=1;" vertex="1" parent="1">
          <mxGeometry x="720" y="660" width="120" height="80" as="geometry" />
        </mxCell>
        <mxCell id="8fC7M1Cp9CSbAhAaaUhM-72" value="抓取特定新闻源" style="rounded=1;arcSize=40;strokeWidth=2;fontSize=18;shape=ellipse;perimeter=ellipsePerimeter;whiteSpace=wrap;html=1;" vertex="1" parent="1">
          <mxGeometry x="720" y="760" width="120" height="80" as="geometry" />
        </mxCell>
        <mxCell id="8fC7M1Cp9CSbAhAaaUhM-73" value="模型优化" style="rounded=1;arcSize=40;strokeWidth=2;fontSize=18;shape=ellipse;perimeter=ellipsePerimeter;whiteSpace=wrap;html=1;" vertex="1" parent="1">
          <mxGeometry x="720" y="1220" width="120" height="80" as="geometry" />
        </mxCell>
        <mxCell id="8fC7M1Cp9CSbAhAaaUhM-74" value="内容长度&#xa;设置" style="rounded=1;arcSize=40;strokeWidth=2;fontSize=18;shape=ellipse;perimeter=ellipsePerimeter;whiteSpace=wrap;html=1;" vertex="1" parent="1">
          <mxGeometry x="731" y="320" width="120" height="80" as="geometry" />
        </mxCell>
        <mxCell id="8fC7M1Cp9CSbAhAaaUhM-75" value="" style="curved=1;startArrow=none;endArrow=block;rounded=0;strokeWidth=2;fontSize=18;" edge="1" parent="1" source="8fC7M1Cp9CSbAhAaaUhM-53" target="8fC7M1Cp9CSbAhAaaUhM-54">
          <mxGeometry relative="1" as="geometry" />
        </mxCell>
        <mxCell id="8fC7M1Cp9CSbAhAaaUhM-76" value="" style="curved=1;startArrow=none;endArrow=block;rounded=0;strokeWidth=2;fontSize=18;" edge="1" parent="1" source="8fC7M1Cp9CSbAhAaaUhM-53" target="8fC7M1Cp9CSbAhAaaUhM-55">
          <mxGeometry relative="1" as="geometry" />
        </mxCell>
        <mxCell id="8fC7M1Cp9CSbAhAaaUhM-77" value="" style="curved=1;startArrow=none;endArrow=block;rounded=0;strokeWidth=2;fontSize=18;" edge="1" parent="1" source="8fC7M1Cp9CSbAhAaaUhM-56" target="8fC7M1Cp9CSbAhAaaUhM-57">
          <mxGeometry relative="1" as="geometry" />
        </mxCell>
        <mxCell id="8fC7M1Cp9CSbAhAaaUhM-78" value="" style="curved=1;startArrow=none;endArrow=block;rounded=0;strokeWidth=2;fontSize=18;" edge="1" parent="1" source="8fC7M1Cp9CSbAhAaaUhM-58" target="8fC7M1Cp9CSbAhAaaUhM-59">
          <mxGeometry relative="1" as="geometry" />
        </mxCell>
        <mxCell id="8fC7M1Cp9CSbAhAaaUhM-79" value="" style="curved=1;startArrow=none;endArrow=block;rounded=0;fontSize=18;strokeWidth=2;entryDx=0;entryDy=0;entryPerimeter=0;" edge="1" parent="1" source="8fC7M1Cp9CSbAhAaaUhM-58" target="8fC7M1Cp9CSbAhAaaUhM-60">
          <mxGeometry relative="1" as="geometry" />
        </mxCell>
        <mxCell id="8fC7M1Cp9CSbAhAaaUhM-81" value="" style="curved=1;startArrow=none;endArrow=block;rounded=0;strokeWidth=2;fontSize=18;" edge="1" parent="1" source="8fC7M1Cp9CSbAhAaaUhM-61" target="8fC7M1Cp9CSbAhAaaUhM-63">
          <mxGeometry relative="1" as="geometry" />
        </mxCell>
        <mxCell id="8fC7M1Cp9CSbAhAaaUhM-84" value="" style="curved=1;startArrow=none;endArrow=block;rounded=0;strokeWidth=2;fontSize=18;" edge="1" parent="1" source="8fC7M1Cp9CSbAhAaaUhM-66" target="8fC7M1Cp9CSbAhAaaUhM-67">
          <mxGeometry relative="1" as="geometry" />
        </mxCell>
        <mxCell id="8fC7M1Cp9CSbAhAaaUhM-86" value="" style="curved=1;startArrow=none;endArrow=block;rounded=0;strokeWidth=2;fontSize=18;" edge="1" parent="1" source="8fC7M1Cp9CSbAhAaaUhM-68" target="8fC7M1Cp9CSbAhAaaUhM-70">
          <mxGeometry relative="1" as="geometry" />
        </mxCell>
        <mxCell id="8fC7M1Cp9CSbAhAaaUhM-87" value="&lt;&lt;extend&gt;&gt;" style="curved=1;startArrow=none;endArrow=block;rounded=0;dashed=1;strokeWidth=2;fontSize=18;" edge="1" parent="1" source="8fC7M1Cp9CSbAhAaaUhM-57" target="8fC7M1Cp9CSbAhAaaUhM-71">
          <mxGeometry relative="1" as="geometry" />
        </mxCell>
        <mxCell id="8fC7M1Cp9CSbAhAaaUhM-88" value="&lt;&lt;extend&gt;&gt;" style="curved=1;startArrow=none;endArrow=block;rounded=0;dashed=1;strokeWidth=2;fontSize=18;" edge="1" parent="1" source="8fC7M1Cp9CSbAhAaaUhM-59" target="8fC7M1Cp9CSbAhAaaUhM-72">
          <mxGeometry relative="1" as="geometry" />
        </mxCell>
        <mxCell id="8fC7M1Cp9CSbAhAaaUhM-89" value="&lt;&lt;includ&gt;&gt;" style="curved=1;startArrow=none;endArrow=block;rounded=0;dashed=1;strokeWidth=2;fontSize=18;" edge="1" parent="1" source="8fC7M1Cp9CSbAhAaaUhM-67" target="8fC7M1Cp9CSbAhAaaUhM-73">
          <mxGeometry relative="1" as="geometry" />
        </mxCell>
        <mxCell id="8fC7M1Cp9CSbAhAaaUhM-90" value="&lt;&lt;extend&gt;&gt;" style="curved=1;startArrow=none;endArrow=block;rounded=0;dashed=1;strokeWidth=2;fontSize=18;" edge="1" parent="1" source="8fC7M1Cp9CSbAhAaaUhM-54" target="8fC7M1Cp9CSbAhAaaUhM-74">
          <mxGeometry relative="1" as="geometry" />
        </mxCell>
        <mxCell id="8fC7M1Cp9CSbAhAaaUhM-97" value="调用api接口" style="rounded=1;arcSize=40;strokeWidth=2;fontSize=18;shape=ellipse;perimeter=ellipsePerimeter;whiteSpace=wrap;html=1;" vertex="1" parent="1">
          <mxGeometry x="1020" y="320" width="120" height="80" as="geometry" />
        </mxCell>
        <mxCell id="8fC7M1Cp9CSbAhAaaUhM-102" value="" style="curved=1;startArrow=none;endArrow=block;rounded=0;strokeWidth=2;fontSize=18;dashed=1;exitDx=0;exitDy=0;entryDx=0;entryDy=0;" edge="1" parent="1" source="8fC7M1Cp9CSbAhAaaUhM-70" target="8fC7M1Cp9CSbAhAaaUhM-97">
          <mxGeometry relative="1" as="geometry">
            <mxPoint x="1221" y="830" as="sourcePoint" />
            <mxPoint x="1150" y="834.5" as="targetPoint" />
          </mxGeometry>
        </mxCell>
        <mxCell id="8fC7M1Cp9CSbAhAaaUhM-116" value="&amp;lt;&amp;lt;includ&amp;gt;&amp;gt;" style="edgeLabel;html=1;align=center;verticalAlign=middle;resizable=0;points=[];fontSize=18;" vertex="1" connectable="0" parent="8fC7M1Cp9CSbAhAaaUhM-102">
          <mxGeometry x="0.1323" y="-3" relative="1" as="geometry">
            <mxPoint x="-1" y="-1" as="offset" />
          </mxGeometry>
        </mxCell>
        <mxCell id="8fC7M1Cp9CSbAhAaaUhM-104" value="登录验证" style="rounded=1;arcSize=40;strokeWidth=2;fontSize=18;shape=ellipse;perimeter=ellipsePerimeter;whiteSpace=wrap;html=1;" vertex="1" parent="1">
          <mxGeometry x="729" y="421" width="120" height="80" as="geometry" />
        </mxCell>
        <mxCell id="8fC7M1Cp9CSbAhAaaUhM-105" value="个人信息修改" style="rounded=1;arcSize=40;strokeWidth=2;fontSize=18;shape=ellipse;perimeter=ellipsePerimeter;whiteSpace=wrap;html=1;" vertex="1" parent="1">
          <mxGeometry x="725" y="519" width="120" height="80" as="geometry" />
        </mxCell>
        <mxCell id="8fC7M1Cp9CSbAhAaaUhM-107" style="rounded=0;orthogonalLoop=1;jettySize=auto;html=1;entryDx=0;entryDy=0;dashed=1;fontSize=18;exitDx=0;exitDy=0;" edge="1" parent="1" source="8fC7M1Cp9CSbAhAaaUhM-55" target="8fC7M1Cp9CSbAhAaaUhM-105">
          <mxGeometry relative="1" as="geometry">
            <mxPoint x="590" y="522" as="sourcePoint" />
            <mxPoint x="810" y="468" as="targetPoint" />
          </mxGeometry>
        </mxCell>
        <mxCell id="8fC7M1Cp9CSbAhAaaUhM-109" value="&amp;lt;&amp;lt;extend&amp;gt;&amp;gt;" style="edgeLabel;html=1;align=center;verticalAlign=middle;resizable=0;points=[];fontSize=18;" vertex="1" connectable="0" parent="8fC7M1Cp9CSbAhAaaUhM-107">
          <mxGeometry x="-0.0667" y="2" relative="1" as="geometry">
            <mxPoint as="offset" />
          </mxGeometry>
        </mxCell>
        <mxCell id="8fC7M1Cp9CSbAhAaaUhM-111" value="模型调用接口" style="rounded=1;arcSize=40;strokeWidth=2;fontSize=18;shape=ellipse;perimeter=ellipsePerimeter;whiteSpace=wrap;html=1;" vertex="1" parent="1">
          <mxGeometry x="720" y="1079" width="120" height="80" as="geometry" />
        </mxCell>
        <mxCell id="8fC7M1Cp9CSbAhAaaUhM-126" value="存储新闻数据到Mysql" style="rounded=1;arcSize=40;strokeWidth=2;fontSize=18;shape=ellipse;perimeter=ellipsePerimeter;whiteSpace=wrap;html=1;" vertex="1" parent="1">
          <mxGeometry x="720" y="950" width="120" height="80" as="geometry" />
        </mxCell>
        <mxCell id="8fC7M1Cp9CSbAhAaaUhM-135" value="提供接口服务" style="rounded=1;arcSize=40;strokeWidth=2;fontSize=18;shape=ellipse;perimeter=ellipsePerimeter;whiteSpace=wrap;html=1;" vertex="1" parent="1">
          <mxGeometry x="1030" y="1160" width="120" height="80" as="geometry" />
        </mxCell>
        <mxCell id="8fC7M1Cp9CSbAhAaaUhM-169" value="&amp;lt;&amp;lt;includ&amp;gt;&amp;gt;" style="rounded=0;orthogonalLoop=1;jettySize=auto;html=1;entryDx=0;entryDy=0;fontSize=18;" edge="1" parent="1" source="8fC7M1Cp9CSbAhAaaUhM-137" target="8fC7M1Cp9CSbAhAaaUhM-168">
          <mxGeometry relative="1" as="geometry" />
        </mxCell>
        <mxCell id="8fC7M1Cp9CSbAhAaaUhM-137" value="用户数据统计" style="rounded=1;arcSize=40;strokeWidth=2;fontSize=18;shape=ellipse;perimeter=ellipsePerimeter;whiteSpace=wrap;html=1;" vertex="1" parent="1">
          <mxGeometry x="1350" y="1220" width="120" height="80" as="geometry" />
        </mxCell>
        <mxCell id="8fC7M1Cp9CSbAhAaaUhM-139" value="抓取数据统计" style="rounded=1;arcSize=40;strokeWidth=2;fontSize=18;shape=ellipse;perimeter=ellipsePerimeter;whiteSpace=wrap;html=1;" vertex="1" parent="1">
          <mxGeometry x="720" y="850" width="120" height="80" as="geometry" />
        </mxCell>
        <mxCell id="8fC7M1Cp9CSbAhAaaUhM-142" value="发布 网页 端" style="ellipse;whiteSpace=wrap;html=1;fontSize=18;" vertex="1" parent="1">
          <mxGeometry x="1018" y="419.5" width="120" height="80" as="geometry" />
        </mxCell>
        <mxCell id="8fC7M1Cp9CSbAhAaaUhM-143" value="发布手机网页端" style="ellipse;whiteSpace=wrap;html=1;fontSize=18;" vertex="1" parent="1">
          <mxGeometry x="1019" y="505" width="120" height="80" as="geometry" />
        </mxCell>
        <mxCell id="8fC7M1Cp9CSbAhAaaUhM-144" value="发布小程序端" style="ellipse;whiteSpace=wrap;html=1;fontSize=18;" vertex="1" parent="1">
          <mxGeometry x="1022" y="585" width="120" height="80" as="geometry" />
        </mxCell>
        <mxCell id="8fC7M1Cp9CSbAhAaaUhM-159" style="rounded=0;orthogonalLoop=1;jettySize=auto;html=1;entryDx=0;entryDy=0;dashed=1;strokeWidth=2;fontSize=18;" edge="1" parent="1" source="8fC7M1Cp9CSbAhAaaUhM-146" target="8fC7M1Cp9CSbAhAaaUhM-149">
          <mxGeometry relative="1" as="geometry" />
        </mxCell>
        <mxCell id="8fC7M1Cp9CSbAhAaaUhM-167" value="&amp;lt;&amp;lt;includ&amp;gt;&amp;gt;" style="edgeLabel;html=1;align=center;verticalAlign=middle;resizable=0;points=[];fontSize=18;" vertex="1" connectable="0" parent="8fC7M1Cp9CSbAhAaaUhM-159">
          <mxGeometry x="0.162" y="3" relative="1" as="geometry">
            <mxPoint as="offset" />
          </mxGeometry>
        </mxCell>
        <mxCell id="8fC7M1Cp9CSbAhAaaUhM-162" style="rounded=0;orthogonalLoop=1;jettySize=auto;html=1;entryDx=0;entryDy=0;dashed=1;strokeWidth=2;fontSize=18;" edge="1" parent="1" source="8fC7M1Cp9CSbAhAaaUhM-146" target="8fC7M1Cp9CSbAhAaaUhM-147">
          <mxGeometry relative="1" as="geometry" />
        </mxCell>
        <mxCell id="8fC7M1Cp9CSbAhAaaUhM-166" value="&amp;lt;&amp;lt;includ&amp;gt;&amp;gt;" style="edgeLabel;html=1;align=center;verticalAlign=middle;resizable=0;points=[];fontSize=18;" vertex="1" connectable="0" parent="8fC7M1Cp9CSbAhAaaUhM-162">
          <mxGeometry x="0.163" y="-3" relative="1" as="geometry">
            <mxPoint x="1" as="offset" />
          </mxGeometry>
        </mxCell>
        <mxCell id="8fC7M1Cp9CSbAhAaaUhM-146" value="打包新闻阅读应用" style="ellipse;whiteSpace=wrap;html=1;fontSize=18;" vertex="1" parent="1">
          <mxGeometry x="1340" y="860" width="120" height="80" as="geometry" />
        </mxCell>
        <mxCell id="8fC7M1Cp9CSbAhAaaUhM-147" value="桌面端" style="ellipse;whiteSpace=wrap;html=1;fontSize=18;" vertex="1" parent="1">
          <mxGeometry x="1018" y="716" width="120" height="80" as="geometry" />
        </mxCell>
        <mxCell id="8fC7M1Cp9CSbAhAaaUhM-149" value="移动端 app" style="ellipse;whiteSpace=wrap;html=1;fontSize=18;" vertex="1" parent="1">
          <mxGeometry x="1022" y="823" width="120" height="80" as="geometry" />
        </mxCell>
        <mxCell id="8fC7M1Cp9CSbAhAaaUhM-161" style="rounded=0;orthogonalLoop=1;jettySize=auto;html=1;entryDx=0;entryDy=0;entryPerimeter=0;dashed=1;strokeWidth=2;fontSize=18;" edge="1" parent="1" source="8fC7M1Cp9CSbAhAaaUhM-70" target="8fC7M1Cp9CSbAhAaaUhM-144">
          <mxGeometry relative="1" as="geometry" />
        </mxCell>
        <mxCell id="8fC7M1Cp9CSbAhAaaUhM-165" value="&amp;lt;&amp;lt;includ&amp;gt;&amp;gt;" style="edgeLabel;html=1;align=center;verticalAlign=middle;resizable=0;points=[];fontSize=18;" vertex="1" connectable="0" parent="8fC7M1Cp9CSbAhAaaUhM-161">
          <mxGeometry x="0.0559" y="4" relative="1" as="geometry">
            <mxPoint as="offset" />
          </mxGeometry>
        </mxCell>
        <mxCell id="8fC7M1Cp9CSbAhAaaUhM-168" value="调用情况统计" style="rounded=1;arcSize=40;strokeWidth=2;fontSize=18;shape=ellipse;perimeter=ellipsePerimeter;whiteSpace=wrap;html=1;" vertex="1" parent="1">
          <mxGeometry x="1030" y="1260" width="120" height="80" as="geometry" />
        </mxCell>
      </root>
    </mxGraphModel>
  </diagram>
</mxfile>
